<svg xmlns="http://www.w3.org/2000/svg" xmlns:xlink="http://www.w3.org/1999/xlink" width="561.182" height="95.868" viewBox="0 0 561.182 95.868">
  <defs>
    <clipPath id="clip-path">
      <rect id="Rectangle_73" data-name="Rectangle 73" width="561.182" height="95.868" transform="translate(0 0)" fill="none"/>
    </clipPath>
  </defs>
  <g id="Group_69" data-name="Group 69" transform="translate(0 0)">
    <path id="Path_86" data-name="Path 86" d="M26.484,52.625V83.007L7.412,52.625H0V95.281H7.412V65.019L26.425,95.281h7.413V52.625Z"/>
    <path id="Path_87" data-name="Path 87" d="M42.6,52.625V95.281h27.89V89.363H50.009V76.239H67.53V70.38H50.009V58.6H70.283V52.625Z"/>
    <path id="Path_88" data-name="Path 88" d="M116.543,52.625l-6.562,32.109-8.057-32.109H95.713L87.568,84.676,80.947,52.625H73.594l9.843,42.656h7.119l8.292-31.142,8.115,31.142h7.09L123.9,52.625Z"/>
    <path id="Path_89" data-name="Path 89" d="M167.989,52.625,158.175,72.84,148.36,52.625h-8.232l14.326,26.953v15.7h7.441v-15.7l14.3-26.953Z"/>
    <path id="Path_90" data-name="Path 90" d="M180.82,52.625V95.281h27.891V89.363H188.232V76.239h17.52V70.38h-17.52V58.6h20.274V52.625Z"/>
    <path id="Path_91" data-name="Path 91" d="M230.361,61.679l6.182,17.694H224.18Zm-3.31-9.054L210.937,95.281h7.705L222.1,85.35h16.524l3.486,9.931h7.734L233.7,52.625Z"/>
    <g id="Group_68" data-name="Group 68">
      <g id="Group_67" data-name="Group 67" clip-path="url(#clip-path)">
        <path id="Path_92" data-name="Path 92" d="M270.352,78.876H262.09V95.282h-7.412V52.626h15q7.383,0,11.4,3.313t4.014,9.588a12.007,12.007,0,0,1-2.065,7.169,13.138,13.138,0,0,1-5.757,4.442l9.58,17.763v.381h-7.94ZM262.09,72.9h7.617a8.474,8.474,0,0,0,5.86-1.89,6.589,6.589,0,0,0,2.109-5.171,7.013,7.013,0,0,0-1.948-5.3q-1.949-1.875-5.816-1.934H262.09Z"/>
        <path id="Path_93" data-name="Path 93" d="M340.9,95.282h-7.412L314.472,65.018V95.282H307.06V52.626h7.412l19.072,30.381V52.626H340.9Z"/>
        <path id="Path_94" data-name="Path 94" d="M374.59,76.239H357.07V89.364h20.479v5.918H349.658V52.626h27.686V58.6H357.07V70.38h17.52Z"/>
        <path id="Path_95" data-name="Path 95" d="M417.041,84.735,423.6,52.626h7.354l-9.844,42.656h-7.09l-8.115-31.143-8.291,31.143H390.5l-9.844-42.656h7.354l6.621,32.05,8.144-32.05h6.211Z"/>
        <path id="Path_96" data-name="Path 96" d="M451.318,95.282V52.626h14.619q7.236,0,11.016,2.9t3.779,8.643a9.207,9.207,0,0,1-1.582,5.273,10.181,10.181,0,0,1-4.629,3.633,9.418,9.418,0,0,1,5.347,3.53,10.288,10.288,0,0,1,1.889,6.226q0,6.006-3.852,9.228t-11.03,3.223Zm7.412-24.7H466a8.4,8.4,0,0,0,5.4-1.568,5.369,5.369,0,0,0,1.948-4.438q0-3.164-1.8-4.57t-5.61-1.407H458.73Zm0,5.449v13.33h8.232a7.97,7.97,0,0,0,5.45-1.728,6.07,6.07,0,0,0,1.963-4.805q0-6.651-6.8-6.8Z"/>
        <path id="Path_97" data-name="Path 97" d="M513.046,85.351H496.523l-3.457,9.931h-7.705l16.113-42.656h6.65l16.143,42.656h-7.734ZM498.6,79.374h12.363l-6.181-17.695Z"/>
        <path id="Path_98" data-name="Path 98" d="M561.182,89.745a14.171,14.171,0,0,1-6.416,4.57,26.178,26.178,0,0,1-9.316,1.553,18.361,18.361,0,0,1-9.493-2.432,16.192,16.192,0,0,1-6.372-6.958,24.348,24.348,0,0,1-2.329-10.561v-3.34q0-9.667,4.629-15.1T544.8,52.04q7.119,0,11.309,3.53t5.039,10.152h-7.266q-1.23-7.706-8.935-7.706a8.761,8.761,0,0,0-7.574,3.586q-2.592,3.586-2.68,10.523V75.4q0,6.908,2.915,10.728a9.614,9.614,0,0,0,8.1,3.819q5.684,0,8.086-2.578v-8.35H545.01V73.4h16.172Z"/>
        <path id="Path_99" data-name="Path 99" d="M415.02,15.219a6.134,6.134,0,0,1-2.079-.851,3.948,3.948,0,0,1-1.418-1.548,3.149,3.149,0,0,1-.222-2.133,2.67,2.67,0,0,1,.821-1.553,2.514,2.514,0,0,1,1.35-.581,4.356,4.356,0,0,1,1.419.057,5.222,5.222,0,0,0-1.24,1.167,3.3,3.3,0,0,0-.61,1.28,2.433,2.433,0,0,0,.08,1.315,2.574,2.574,0,0,0,.826,1.158,3.694,3.694,0,0,0,1.625.723,5.178,5.178,0,0,0,1.773.07,3.4,3.4,0,0,0,1.558-.588,2.139,2.139,0,0,0,.849-1.352,2.184,2.184,0,0,0-.167-1.477,4.844,4.844,0,0,0-.962-1.289Q418,9,417.284,8.413a16.069,16.069,0,0,1-1.332-1.235,4.705,4.705,0,0,1-.943-1.386,2.646,2.646,0,0,1-.13-1.642,4.352,4.352,0,0,1,.766-1.627,6.311,6.311,0,0,1,1.507-1.468,5.914,5.914,0,0,1,2.076-.918,5.531,5.531,0,0,1,2.453,0,2.638,2.638,0,0,1,1.777.97,2.1,2.1,0,0,1,.232,1.6,5.356,5.356,0,0,1-.584,1.491,11.06,11.06,0,0,1-.949,1.434,13.681,13.681,0,0,1-.964,1.124,1.206,1.206,0,0,1-.572-.479.975.975,0,0,1-.077-.7,3.048,3.048,0,0,1,.362-.883q.274-.474.616-.973c.227-.334.434-.661.618-.983a3.108,3.108,0,0,0,.359-.875.741.741,0,0,0-.087-.591A1.288,1.288,0,0,0,421.621.9a3.713,3.713,0,0,0-1.808.045,5.208,5.208,0,0,0-2.752,1.877,3.193,3.193,0,0,0-.58,1.2,1.778,1.778,0,0,0,.194,1.3,4.855,4.855,0,0,0,.97,1.157q.627.563,1.332,1.141a12.951,12.951,0,0,1,1.31,1.241,4.439,4.439,0,0,1,.906,1.46,3.2,3.2,0,0,1,.083,1.816,3.572,3.572,0,0,1-.841,1.7,4.254,4.254,0,0,1-1.523,1.056,6.288,6.288,0,0,1-1.907.453,6.8,6.8,0,0,1-1.985-.126"/>
        <path id="Path_100" data-name="Path 100" d="M423.274,15.81a1.3,1.3,0,0,1-.954-.847,2.513,2.513,0,0,1-.118-1.507,5.816,5.816,0,0,1,.45-1.254,10.244,10.244,0,0,1,.768-1.349,7.311,7.311,0,0,1,.835-1.05c.269-.269.488-.387.658-.35a1.088,1.088,0,0,1,.389.236,2.05,2.05,0,0,1,.422.468,7.115,7.115,0,0,0-.721.848,11.187,11.187,0,0,0-.834,1.275,4.644,4.644,0,0,0-.521,1.3c-.012.052-.028.177-.051.377a1.751,1.751,0,0,0,.031.58.425.425,0,0,0,.356.341,1.111,1.111,0,0,0,.792-.21,6.2,6.2,0,0,0,.981-.772c.349-.327.7-.687,1.047-1.076s.668-.771.959-1.145.532-.691.724-.95a3.314,3.314,0,0,1,.438.195,2.139,2.139,0,0,1,.455.312.409.409,0,0,1,.138.407,2.677,2.677,0,0,1-.287.44c-.185.254-.4.559-.645.916A12.54,12.54,0,0,0,427.9,14.1a3.908,3.908,0,0,0-.417,1.046,1.033,1.033,0,0,0,.007.5.438.438,0,0,0,.376.3,1.925,1.925,0,0,0,1.057-.163,5.909,5.909,0,0,0,1.4-.827,7.748,7.748,0,0,0,1.432-1.453l.245.3a7.573,7.573,0,0,1-1.519,1.66,5.952,5.952,0,0,1-1.748,1.008,2.971,2.971,0,0,1-1.627.155,1.233,1.233,0,0,1-.8-.445,1.344,1.344,0,0,1-.235-.766,4.583,4.583,0,0,1,.063-.875c.014-.065.028-.133.044-.206l.039-.185a12.411,12.411,0,0,1-.942.873,4.664,4.664,0,0,1-1.008.653,1.553,1.553,0,0,1-1,.136"/>
        <path id="Path_101" data-name="Path 101" d="M432.617,18.225a2.818,2.818,0,0,1-1.49-.736,2.285,2.285,0,0,1-.635-1.2,3.367,3.367,0,0,1,.013-1.316,2.068,2.068,0,0,1,.344-.846,1.135,1.135,0,0,1,.489-.376,2.589,2.589,0,0,1,.489-.132.9.9,0,0,0,.34-.111,14.565,14.565,0,0,0,1.259-.97,7.672,7.672,0,0,0,1.208-1.307l.041-.195a1.813,1.813,0,0,1,.5-1.049.8.8,0,0,1,.686-.192.45.45,0,0,1,.316.19.508.508,0,0,1,.069.3,1.008,1.008,0,0,1-.107.264,1.558,1.558,0,0,0-.14.42,3.962,3.962,0,0,0,0,1.4q.122.813.228,1.715a5.523,5.523,0,0,1-.083,1.782c-.033.155-.071.3-.111.426a3.258,3.258,0,0,1-.138.358,2.986,2.986,0,0,0,1.338-.421,5.394,5.394,0,0,0,1.44-1.3l.2.226a4.431,4.431,0,0,1-1.458,1.561,3.118,3.118,0,0,1-1.82.481,2.292,2.292,0,0,1-1.28.976,3.375,3.375,0,0,1-1.7.047m.046-.889a1.418,1.418,0,0,0,1.413-.5,4.091,4.091,0,0,1-1.315-.934,4.407,4.407,0,0,1-.8-1.131c-.192,0-.32.158-.386.47a2.206,2.206,0,0,0,.114,1.292,1.249,1.249,0,0,0,.975.8m1.694-1.05a1.457,1.457,0,0,0,.117-.313c.033-.123.057-.216.07-.282a7.934,7.934,0,0,0,.136-1.79q-.031-.906-.055-1.852-.482.531-1.1,1.135a8.675,8.675,0,0,1-1.121.949,3.7,3.7,0,0,0,.707,1.192,3.79,3.79,0,0,0,1.247.961"/>
        <path id="Path_102" data-name="Path 102" d="M438.993,19.48a1.957,1.957,0,0,1-1.279-.8,2.1,2.1,0,0,1-.2-1.657,8.654,8.654,0,0,1,.727-1.932,25.233,25.233,0,0,1,1.3-2.3,2.923,2.923,0,0,0-.308-.137,1.439,1.439,0,0,1-.339-.186l.129-.605c.2.07.372.127.506.169l.412.129q.631-.95,1.317-1.817t1.326-1.527A7.558,7.558,0,0,1,443.745,7.8a1.209,1.209,0,0,1,.857-.278.587.587,0,0,1,.34.225.527.527,0,0,1,.087.458,2.659,2.659,0,0,1-.638,1.031q-.555.639-1.347,1.481t-1.573,1.822l.312.067.294.062q.859.183,1.562.3c.466.078.946.144,1.44.194l-.138.646q-1.1-.132-2.009-.265t-1.737-.287l-.118-.025-.117-.025a19.263,19.263,0,0,0-1.132,1.814,6.942,6.942,0,0,0-.722,1.9,1.942,1.942,0,0,0,.015,1.189.957.957,0,0,0,.729.5,3.18,3.18,0,0,0,2.2-.464,7.856,7.856,0,0,0,2.3-2.034l.234.254a9.676,9.676,0,0,1-1.707,1.824,6.573,6.573,0,0,1-1.948,1.13,3.52,3.52,0,0,1-1.934.15"/>
        <path id="Path_103" data-name="Path 103" d="M443.94,20.552a1.6,1.6,0,0,1-1.238-2.063,4.179,4.179,0,0,1,.627-1.419,7.809,7.809,0,0,1,1.2-1.4,8.508,8.508,0,0,1,1.556-1.151,6.611,6.611,0,0,1,1.724-.707,3.709,3.709,0,0,1,1.687-.051,2.409,2.409,0,0,1,1.336.734,1.372,1.372,0,0,1,.344,1.26.85.85,0,0,1-.532.684,1.2,1.2,0,0,1-.911-.05c.053-.112.1-.225.145-.338a2.365,2.365,0,0,0,.108-.365,1.564,1.564,0,0,0-.008-.737c-.058-.232-.26-.383-.6-.456a2.084,2.084,0,0,0-1.194.135,5.411,5.411,0,0,0-1.292.738,8.472,8.472,0,0,0-1.208,1.113,8.341,8.341,0,0,0-.942,1.261,3.908,3.908,0,0,0-.5,1.182c-.09.418.016.658.315.722a1.7,1.7,0,0,0,1.091-.228,8.083,8.083,0,0,0,1.34-.871c.468-.363.918-.741,1.357-1.132s.814-.723,1.13-1a.182.182,0,0,1,.177-.065c.051.024.145.075.285.153a1.514,1.514,0,0,1,.378.3.43.43,0,0,1,.121.394,1.137,1.137,0,0,1-.272.463c-.155.178-.332.373-.534.582a6.464,6.464,0,0,0-.544.64,1.692,1.692,0,0,0-.314.659.923.923,0,0,0,.034.509.5.5,0,0,0,.4.32,2.529,2.529,0,0,0,1.469-.414,7.865,7.865,0,0,0,2.233-1.988l.294.45a8.581,8.581,0,0,1-1.525,1.629,5.891,5.891,0,0,1-1.648.978,2.765,2.765,0,0,1-1.565.148,1.449,1.449,0,0,1-1.086-.762,2.022,2.022,0,0,1-.2-1.187l.011-.06.009-.038a12.062,12.062,0,0,1-1.754,1.181,2.2,2.2,0,0,1-1.514.25"/>
        <path id="Path_104" data-name="Path 104" d="M453.162,22.166a1.629,1.629,0,0,1-1.181-.783,1.88,1.88,0,0,1-.17-1.323,5.46,5.46,0,0,1,.4-1.1,11.322,11.322,0,0,1,.746-1.344,10.627,10.627,0,0,1,.957-1.279,4.866,4.866,0,0,1,1.033-.915,1.27,1.27,0,0,1,.95-.237.668.668,0,0,1,.381.223.523.523,0,0,1,.086.469,1.785,1.785,0,0,1-.466.7q-.412.444-.954,1.024a11.06,11.06,0,0,0-1,1.229,3.535,3.535,0,0,0-.593,1.3A1.155,1.155,0,0,0,453.4,21a.962.962,0,0,0,.611.345,2.375,2.375,0,0,0,1.589-.358A7.785,7.785,0,0,0,457.72,19l.226.376a7.233,7.233,0,0,1-2.31,2.309,3.4,3.4,0,0,1-2.474.476m4.185-8.331a1.294,1.294,0,0,1-.635-.329.642.642,0,0,1-.18-.642.977.977,0,0,1,.678-.693,1.942,1.942,0,0,1,1.128-.108,1.1,1.1,0,0,1,.563.283.638.638,0,0,1,.123.62,1.09,1.09,0,0,1-.618.7,1.512,1.512,0,0,1-1.059.173"/>
        <path id="Path_105" data-name="Path 105" d="M463.005,24.055a1.661,1.661,0,0,1-1.084-.629,1.305,1.305,0,0,1-.194-1.054,2.8,2.8,0,0,1,.313-.8c.153-.275.308-.551.464-.832a3.05,3.05,0,0,0,.319-.832.749.749,0,0,0-.078-.64A.758.758,0,0,0,462.3,19a2.026,2.026,0,0,0-1.3.224,7.357,7.357,0,0,0-1.449.949q-.73.6-1.406,1.276t-1.18,1.22a1.943,1.943,0,0,1-.676-.277,1.29,1.29,0,0,1-.474-.56,5.875,5.875,0,0,1,.35-.548q.313-.456.715-1.1t.761-1.361a5.816,5.816,0,0,0,.489-1.348,1.647,1.647,0,0,1,.487-.224,1.262,1.262,0,0,1,.63-.029c.456.1.644.342.561.732a4.108,4.108,0,0,1-.237.676q-.186.441-.465.994a11.916,11.916,0,0,1,1.388-1.053,6.387,6.387,0,0,1,1.472-.72,2.675,2.675,0,0,1,1.4-.1,1.446,1.446,0,0,1,1.121.832,2.168,2.168,0,0,1,.135,1.337,3.1,3.1,0,0,1-.428,1.054c-.2.311-.4.6-.585.877a2.311,2.311,0,0,0-.373.841.567.567,0,0,0,.053.471.486.486,0,0,0,.295.2,1.542,1.542,0,0,0,1.074-.242,5.89,5.89,0,0,0,1.211-.938,13.4,13.4,0,0,0,1.11-1.227l.273.345a11.568,11.568,0,0,1-1.3,1.554,5.111,5.111,0,0,1-1.424,1.025,2.353,2.353,0,0,1-1.52.178"/>
        <path id="Path_106" data-name="Path 106" d="M466.647,25.382a1.671,1.671,0,0,1-1.035-.67,1.692,1.692,0,0,1-.2-1.393,4.2,4.2,0,0,1,.629-1.42,7.731,7.731,0,0,1,1.2-1.4,8.518,8.518,0,0,1,1.555-1.152,6.628,6.628,0,0,1,1.724-.706,3.7,3.7,0,0,1,1.687-.051,2.4,2.4,0,0,1,1.337.734,1.37,1.37,0,0,1,.344,1.26.854.854,0,0,1-.533.684,1.2,1.2,0,0,1-.91-.051c.052-.111.1-.225.144-.337a2.3,2.3,0,0,0,.109-.366,1.565,1.565,0,0,0-.008-.737c-.059-.231-.26-.383-.6-.455a2.087,2.087,0,0,0-1.195.134,5.405,5.405,0,0,0-1.29.739,8.53,8.53,0,0,0-1.209,1.112,8.2,8.2,0,0,0-.941,1.262,3.933,3.933,0,0,0-.5,1.182q-.133.625.317.722a1.7,1.7,0,0,0,1.091-.229,8.2,8.2,0,0,0,1.341-.87q.7-.546,1.355-1.133t1.131-1a.182.182,0,0,1,.178-.064c.05.024.143.075.284.152a1.551,1.551,0,0,1,.377.3.427.427,0,0,1,.121.394,1.146,1.146,0,0,1-.272.464c-.155.178-.332.372-.534.582a6.9,6.9,0,0,0-.545.639,1.7,1.7,0,0,0-.313.659.932.932,0,0,0,.034.509.5.5,0,0,0,.4.321,2.546,2.546,0,0,0,1.469-.414,7.9,7.9,0,0,0,2.232-1.989l.293.451a8.571,8.571,0,0,1-1.523,1.629,5.92,5.92,0,0,1-1.649.978,2.773,2.773,0,0,1-1.565.147,1.444,1.444,0,0,1-1.085-.761,2.034,2.034,0,0,1-.2-1.188c.006-.025.01-.045.013-.059l.009-.039a12.032,12.032,0,0,1-1.754,1.181,2.205,2.205,0,0,1-1.515.251"/>
        <path id="Path_107" data-name="Path 107" d="M476.181,27.941a2.125,2.125,0,0,1-1.545-1.054,2.957,2.957,0,0,1-.169-2.03,9.57,9.57,0,0,1,.814-2.2,25.461,25.461,0,0,1,1.464-2.56q.854-1.322,1.822-2.557a28.2,28.2,0,0,1,1.911-2.211,12.016,12.016,0,0,1,1.711-1.507,1.723,1.723,0,0,1,1.217-.435.644.644,0,0,1,.492.574,2.626,2.626,0,0,1,.024.945,4.838,4.838,0,0,1-.519,1.28,11.18,11.18,0,0,1-1.018,1.522,16.011,16.011,0,0,1-1.368,1.528,11.315,11.315,0,0,1-1.574,1.3,6.3,6.3,0,0,1-1.637.817,6.189,6.189,0,0,0-.529.808,13.987,13.987,0,0,0-.676,1.35,8.23,8.23,0,0,0-.507,1.567,3.677,3.677,0,0,0-.06,1.388.818.818,0,0,0,.675.726,1.845,1.845,0,0,0,1.194-.236,3.93,3.93,0,0,0,1.2-.931,2.666,2.666,0,0,1-.862-1.328,3.211,3.211,0,0,1-.056-1.566,2.3,2.3,0,0,1,.847-1.435,1.658,1.658,0,0,1,1.386-.318,1.333,1.333,0,0,1,.935.7,2.279,2.279,0,0,1,.1,1.563,5.52,5.52,0,0,1-.4,1.171,6.489,6.489,0,0,1-.709,1.169,1.555,1.555,0,0,1,.165.045,1.262,1.262,0,0,0,.183.049,1.924,1.924,0,0,0,1.253-.121,3.613,3.613,0,0,0,1.008-.706,8.5,8.5,0,0,0,.725-.807l.2.473a4.738,4.738,0,0,1-1.577,1.5,2.855,2.855,0,0,1-2,.21c-.065-.015-.132-.03-.205-.044a1.126,1.126,0,0,1-.2-.064,5.666,5.666,0,0,1-1.678,1.207,3.126,3.126,0,0,1-2.038.211m2.258-7.739a8.356,8.356,0,0,0,1.173-.844,14.524,14.524,0,0,0,1.127-1.069,14.865,14.865,0,0,0,.979-1.142q.437-.57.743-1.048a3.967,3.967,0,0,0,.412-.781c.006-.026.011-.049.014-.068s.008-.035.011-.049a1.9,1.9,0,0,0-.7.444,14.576,14.576,0,0,0-1.181,1.129,19.548,19.548,0,0,0-1.351,1.594,17.416,17.416,0,0,0-1.23,1.834m1.134,5.25a4.106,4.106,0,0,0,.432-.736,4.063,4.063,0,0,0,.274-.851,2.535,2.535,0,0,0,.055-1.072c-.066-.246-.175-.385-.331-.418s-.342.05-.516.258a1.815,1.815,0,0,0-.365.8,3.3,3.3,0,0,0-.028,1,1.7,1.7,0,0,0,.479,1.021"/>
        <path id="Path_108" data-name="Path 108" d="M483.988,28.722a1.389,1.389,0,0,1-1.15-.888,2.9,2.9,0,0,1-.051-1.535,8.9,8.9,0,0,1,.83-2.173,24.167,24.167,0,0,1,1.505-2.512q.877-1.295,1.861-2.507t1.921-2.158a13.869,13.869,0,0,1,1.673-1.474,1.643,1.643,0,0,1,1.109-.449.519.519,0,0,1,.373.355,2.318,2.318,0,0,1,.151.687,2.391,2.391,0,0,1-.036.7,4.965,4.965,0,0,1-.558,1.322,14.855,14.855,0,0,1-1.14,1.71A21.867,21.867,0,0,1,488.9,21.64a18.337,18.337,0,0,1-1.877,1.717,11.212,11.212,0,0,1-2.047,1.3q-.183.474-.352.937a6.381,6.381,0,0,0-.254.857,1.81,1.81,0,0,0,.016,1.076.739.739,0,0,0,.538.452,1.584,1.584,0,0,0,1.105-.246,6.241,6.241,0,0,0,1.247-.961,10.862,10.862,0,0,0,1.145-1.3l.416.354a9.826,9.826,0,0,1-2.463,2.348,3.167,3.167,0,0,1-2.385.546m1.6-5.2a15.916,15.916,0,0,0,1.6-1.307q.777-.723,1.463-1.5t1.232-1.517a13.524,13.524,0,0,0,.892-1.354,4.575,4.575,0,0,0,.448-1l.006-.029.006-.029q-.159-.035-.592.334a14.213,14.213,0,0,0-1.069,1.03q-.63.661-1.338,1.535t-1.4,1.859q-.691.989-1.247,1.974"/>
        <path id="Path_109" data-name="Path 109" d="M489.308,30.14a2.67,2.67,0,0,1-1.783-1.084,2.349,2.349,0,0,1-.314-1.836,4.521,4.521,0,0,1,.829-1.735,7.65,7.65,0,0,1,1.57-1.568,6.776,6.776,0,0,1,1.938-1.029,3.593,3.593,0,0,1,1.911-.146,1.974,1.974,0,0,1,.911.47,1.126,1.126,0,0,1,.237,1.145,2.5,2.5,0,0,1-.725,1.3,4.537,4.537,0,0,1-1.4.909,7.175,7.175,0,0,1-1.772.492,7.636,7.636,0,0,1-1.839.049,1.281,1.281,0,0,0-.066.159,2.728,2.728,0,0,0-.07.281,3.467,3.467,0,0,0-.043.349,1.589,1.589,0,0,0,.057.553,1.2,1.2,0,0,0,.349.566,1.655,1.655,0,0,0,.82.379,3.468,3.468,0,0,0,1.75-.109,6.8,6.8,0,0,0,1.824-.889,7.47,7.47,0,0,0,1.585-1.442l.324.4a7.493,7.493,0,0,1-1.8,1.765,6.494,6.494,0,0,1-2.129.978,4.786,4.786,0,0,1-2.169.05m-.068-3.715a3.838,3.838,0,0,0,1.21-.11,6.435,6.435,0,0,0,1.36-.489,4.543,4.543,0,0,0,1.159-.786,1.925,1.925,0,0,0,.6-1.006.433.433,0,0,0-.017-.31.353.353,0,0,0-.238-.132,1.754,1.754,0,0,0-1.007.123,5.172,5.172,0,0,0-1.137.637,7.226,7.226,0,0,0-1.084.966,7.087,7.087,0,0,0-.85,1.107"/>
        <path id="Path_110" data-name="Path 110" d="M438.018,46.828a2.022,2.022,0,0,1-1.441-1.915,8.527,8.527,0,0,1,.623-3.363q.145-.4.563-1.435t1.17-2.873a4.363,4.363,0,0,1,.786-1.417q.347-.329,1.3.018c.586.213.891.457.918.728a4.148,4.148,0,0,1-.35,1.471q-.4,1.1-.945,2.312t-.973,2.386a9.7,9.7,0,0,0-.5,1.707q-.083.572.358.732a2.349,2.349,0,0,0,1.689-.195,12.47,12.47,0,0,0,2.223-1.265,27.065,27.065,0,0,0,2.384-1.872q1.188-1.041,2.178-2.051a8.131,8.131,0,0,1,1.8-3.12,1.613,1.613,0,0,1,1.627-.364,1.389,1.389,0,0,1,1.033,1.04,2.306,2.306,0,0,1-.045,1.146,1.851,1.851,0,0,1-.653.884,6.429,6.429,0,0,0-1.026,1,7.438,7.438,0,0,0-1.147,2.237,8.021,8.021,0,0,0-.315,1.152,2.187,2.187,0,0,0,.067,1.186,1.354,1.354,0,0,0,.891.8,2.253,2.253,0,0,0,1.631-.091,7.913,7.913,0,0,0,2.214-1.58l.284.475a7.279,7.279,0,0,1-2.916,2.135,3.52,3.52,0,0,1-2.289.08,2.52,2.52,0,0,1-1.609-1.684,7.407,7.407,0,0,1-.266-2.858,34.864,34.864,0,0,1-3.185,2.534,16.256,16.256,0,0,1-3.308,1.847,3.859,3.859,0,0,1-2.775.215"/>
      </g>
    </g>
  </g>
</svg>
